Coordinates
version=1
nRows=9
nColumns=63
inDegrees=yes

Units are S.I. units (second, meters, Newtons, ...)
If the header above contains a line with 'inDegrees', this indicates whether rotational values are in degrees (yes) or radians (no).

endheader
time	pelvis_tilt	pelvis_list	pelvis_rotation	pelvis_tx	pelvis_ty	pelvis_tz	hip_flexion_r	hip_adduction_r	hip_rotation_r	knee_angle_r	knee_angle_r_beta	ankle_angle_r	subtalar_angle_r	mtp_angle_r	hip_flexion_l	hip_adduction_l	hip_rotation_l	knee_angle_l	knee_angle_l_beta	ankle_angle_l	subtalar_angle_l	mtp_angle_l	L5_S1_Flex_Ext	L5_S1_Lat_Bending	L5_S1_axial_rotation	L4_L5_Flex_Ext	L4_L5_Lat_Bending	L4_L5_axial_rotation	L3_L4_Flex_Ext	L3_L4_Lat_Bending	L3_L4_axial_rotation	L2_L3_Flex_Ext	L2_L3_Lat_Bending	L2_L3_axial_rotation	L1_L2_Flex_Ext	L1_L2_Lat_Bending	L1_L2_axial_rotation	L1_T12_Flex_Ext	L1_T12_Lat_Bending	L1_T12_axial_rotation	Abs_r3	Abs_r2	Abs_r1	Abs_t1	Abs_t2	neck_flexion	neck_bending	neck_rotation	arm_flex_r	arm_add_r	arm_rot_r	elbow_flex_r	pro_sup_r	wrist_flex_r	wrist_dev_r	arm_flex_l	arm_add_l	arm_rot_l	elbow_flex_l	pro_sup_l	wrist_flex_l	wrist_dev_l
      1.45000000	      8.99096925	    -17.14454599	     91.12957680	      0.11039441	      0.75112935	      0.84829082	     23.51635640	      4.12361032	     -4.10737161	      7.51699897	      0.13119638	     23.81242266	     13.00383887	      0.00000000	     22.18615221	     -2.93893366	      7.17700465	      6.61722562	      0.11549237	     21.83643012	    -10.61255398	      0.00000000	     -0.38261035	      2.35849355	     -2.22292130	     -0.71054568	      3.13679642	     -2.36185388	     -0.62859054	      5.73444122	     -2.36185388	     -0.43728537	      5.73444122	     -1.94505613	     -0.35529197	      4.80944005	     -1.80612355	     -0.21862355	      3.65330651	     -1.66719097	     -2.73294746	     26.67975076	    -12.36322137	      0.00000000	      0.00000000	     12.58452486	    -21.74223324	      8.20560089	     19.29784904	    -20.64467537	    130.43063339	      2.46948071	      1.53734409	     -7.16343508	    -14.55540349	     46.16482015	      4.09988198	     16.91836136	    144.70176530	     80.46133562	      3.43137473	      3.79462650
      1.46666667	      8.74209042	    -17.45558103	     90.89355433	      0.11104858	      0.75041559	      0.84826007	     23.81989134	      3.93198949	     -3.96574139	      7.54420840	      0.13167128	     23.86544314	     13.16018690	      0.00000000	     22.57748618	     -2.77439174	      6.93390699	      6.80131441	      0.11870533	     21.83584933	    -10.74724269	      0.00000000	     -0.37065412	      2.34934256	     -2.24213457	     -0.68834176	      3.12462561	     -2.38226798	     -0.60894765	      5.71219151	     -2.38226798	     -0.42362059	      5.71219151	     -1.96186775	     -0.34418941	      4.79077935	     -1.82173433	     -0.21179176	      3.63913163	     -1.68160092	     -2.64754531	     26.57623294	    -12.47007981	      0.00000000	      0.00000000	     12.95326793	    -21.65351063	      8.72492817	     19.56349403	    -20.37098681	    130.61151191	      2.41806858	      1.56049668	     -7.10438199	    -15.05864471	     46.32798735	      3.61674021	     16.63514087	    144.91556973	     80.46862031	      3.37586208	      3.98941052
      1.48333333	      8.53933011	    -17.74736339	     90.65126457	      0.11155177	      0.74966205	      0.84832105	     24.10526133	      3.77909426	     -3.92262420	      7.58624161	      0.13240489	     23.89887099	     13.35550690	      0.00000000	     22.95850442	     -2.64910156	      6.61363033	      7.07228057	      0.12343458	     21.68915059	    -10.92540460	      0.00000000	     -0.35838201	      2.34670463	     -2.25460547	     -0.66555124	      3.12111716	     -2.39551831	     -0.58878581	      5.70577763	     -2.39551831	     -0.40959480	      5.70577763	     -1.97277978	     -0.33279354	      4.78540008	     -1.83186694	     -0.20477948	      3.63504547	     -1.69095410	     -2.55988689	     26.54639210	    -12.53943923	      0.00000000	      0.00000000	     13.20159750	    -21.49058660	      9.37162933	     19.84908811	    -20.15448895	    131.19996457	      2.33284935	      1.59771648	     -7.23969986	    -15.62837133	     46.39460775	      3.23372719	     16.41969327	    145.20382404	     79.90888016	      3.21232812	      4.75129554
      1.50000000	      8.51267165	    -17.85284966	     90.57740887	      0.11192385	      0.74913864	      0.84852929	     24.16339421	      3.77246801	     -3.98794874	      7.54678179	      0.13171619	     23.79465721	     13.37078136	      0.00000000	     23.09168461	     -2.67182086	      6.35071305	      7.22499430	      0.12609994	     21.25993590	    -11.02144292	      0.00000000	     -0.36330495	      2.35596959	     -2.26378179	     -0.67469362	      3.13343956	     -2.40526815	     -0.59687370	      5.72830447	     -2.40526815	     -0.41522122	      5.72830447	     -1.98080907	     -0.33736497	      4.80429320	     -1.83932270	     -0.20759245	      3.64939690	     -1.69783634	     -2.59505091	     26.65119924	    -12.59047517	      0.00000000	      0.00000000	     13.14947250	    -21.48070847	      9.43265531	     20.09107161	    -19.95117781	    131.38099779	      2.21699647	      1.64898730	     -7.30848832	    -15.86681425	     46.38883294	      3.02193147	     16.30128160	    145.19126992	     79.66332723	      3.17311836	      4.95003607
      1.51666667	      8.47256193	    -18.04977182	     90.54722049	      0.11188229	      0.74829464	      0.84880416	     24.33103546	      3.68238257	     -4.52473621	      7.50585635	      0.13100191	     23.72761618	     13.99066980	      0.00000000	     23.44256616	     -2.60111630	      6.45738354	      7.65814615	      0.13365986	     20.83843423	    -11.77228790	      0.00000000	     -0.35122192	      2.37450809	     -2.33110762	     -0.65225422	      3.15809576	     -2.47680185	     -0.57702248	      5.77337897	     -2.47680185	     -0.40141153	      5.77337897	     -2.03971917	     -0.32614467	      4.84209689	     -1.89402494	     -0.20068820	      3.67811303	     -1.74833072	     -2.50874302	     26.86091040	    -12.96492126	      0.00000000	      0.00000000	     13.25895540	    -21.48025898	     10.47692389	     20.51952903	    -19.77538257	    134.43517024	      1.87828544	      1.46622050	     -8.02251899	    -16.19270397	     46.26491433	      2.77772778	     16.25280064	    145.72409138	     70.82392852	      3.31292183	      8.85848277
      1.53333333	      8.53375406	    -18.09429932	     90.47487847	      0.11196243	      0.74775485	      0.84935004	     24.38489727	      3.76220232	     -4.46410353	      7.48842163	      0.13069761	     23.52080041	     13.85021661	      0.00000000	     23.63298287	     -2.67643119	      6.35969663	      8.04997655	      0.14049860	     20.35106447	    -12.31179662	      0.00000000	     -0.35694680	      2.39579873	     -2.32811535	     -0.66288590	      3.18641230	     -2.47362256	     -0.58642789	      5.82514502	     -2.47362256	     -0.40795449	      5.82514502	     -2.03710093	     -0.33146080	      4.88551276	     -1.89159372	     -0.20395940	      3.71109223	     -1.74608651	     -2.54963527	     27.10175434	    -12.94827912	      0.00000000	      0.00000000	     13.12611306	    -21.69849349	     10.62193970	     20.79129779	    -19.74257050	    134.53829662	      1.80624197	      1.49921639	     -8.19919425	    -17.15100714	     46.20655505	      2.71733772	     16.54346405	    145.47070391	     63.46237350	      4.00281544	      9.32639513
      1.55000000	      8.58238460	    -18.08847849	     90.44717073	      0.11198118	      0.74738489	      0.84985107	     24.34773379	      3.82029503	     -4.45824231	      7.36865184	      0.12860724	     23.21847512	     13.75034245	      0.00000000	     23.80581387	     -2.73362214	      6.06082163	      8.47643157	      0.14794164	     19.98717711	    -12.53915601	      0.00000000	     -0.36628656	      2.41300423	     -2.35642414	     -0.68023076	      3.20929563	     -2.50370065	     -0.60177218	      5.86697849	     -2.50370065	     -0.41862891	      5.86697849	     -2.06187112	     -0.34013370	      4.92059823	     -1.91459461	     -0.20929614	      3.73774355	     -1.76731810	     -2.61634824	     27.29638646	    -13.10572412	      0.00000000	      0.00000000	     12.95949149	    -21.91673418	     10.80994142	     21.13786543	    -19.63767959	    134.86416289	      1.67383672	      1.47389655	     -8.37300950	    -18.25043711	     45.99910264	      2.76982558	     16.34032402	    145.51539508	     62.50396527	      3.90691437	      9.48737954
      1.56666667	      8.59289720	    -18.03190751	     90.45155765	      0.11201512	      0.74730275	      0.85036717	     24.31414251	      3.83322200	     -4.55838472	      7.34718441	      0.12823256	     22.86045451	     13.61025786	      0.00000000	     23.84792305	     -2.74726924	      5.72060482	      8.68120037	      0.15151553	     19.53675075	    -12.68545996	      0.00000000	     -0.38185952	      2.42052081	     -2.40465452	     -0.70915131	      3.21929268	     -2.55494542	     -0.62735700	      5.88525430	     -2.55494542	     -0.43642724	      5.88525430	     -2.10407270	     -0.35459475	      4.93592604	     -1.95378179	     -0.21819453	      3.74938674	     -1.80349089	     -2.72758435	     27.38141551	    -13.37396703	      0.00000000	      0.00000000	     12.77771313	    -21.93166752	     10.79149225	     21.53501613	    -19.37451524	    134.89222503	      1.45749191	      1.40486497	     -8.47129091	    -18.80104718	     45.74916066	      2.85450141	     16.16473841	    145.57526395	     61.96371781	      3.84852494	      9.46425113
      1.58333333	      8.71462690	    -18.00546997	     90.77075850	      0.11210476	      0.74699295	      0.85063587	     24.10047091	      4.00607788	     -3.08419258	      6.89896948	      0.12040973	     22.21433698	     11.00466269	      0.00000000	     24.04556484	     -2.75570778	      6.07127310	      9.02798939	      0.15756814	     19.43106917	    -13.10680770	      0.00000000	     -0.38286519	      2.43578916	     -2.51387261	     -0.71101894	      3.23959958	     -2.67098965	     -0.62900922	      5.92237776	     -2.67098965	     -0.43757663	      5.92237776	     -2.19963853	     -0.35552862	      4.96706126	     -2.04252149	     -0.21876917	      3.77303741	     -1.88540446	     -2.73476777	     27.55413414	    -13.98140528	      0.00000000	      0.00000000	     12.80257187	    -21.99847768	     11.17869549	     21.89773066	    -19.14992260	    134.79356388	      1.41529634	      1.31044247	     -8.73526600	    -20.37912991	     45.66709836	      2.65523723	     17.48858235	    145.78525763	     41.79867065	      3.85638582	     12.34699675
